<?xml version="1.0" standalone="no"?>
<!DOCTYPE svg PUBLIC "-//W3C//DTD SVG 20010904//EN"
 "http://www.w3.org/TR/2001/REC-SVG-20010904/DTD/svg10.dtd">
<svg version="1.0" xmlns="http://www.w3.org/2000/svg"
 width="18" height="18" viewBox="0 0 222.000000 300.000000"
 preserveAspectRatio="xMidYMid meet">
<metadata>
Created by potrace 1.16, written by Peter Selinger 2001-2019
</metadata>
<g transform="translate(0.000000,300.000000) scale(0.100000,-0.100000)"
fill="white" stroke="none">
<path d="M250 2991 c-87 -27 -174 -101 -218 -186 -21 -41 -27 -67 -30 -147 -4
-87 -2 -102 21 -152 35 -77 69 -118 130 -160 215 -147 509 -20 556 240 29 159
-72 336 -224 393 -58 22 -182 28 -235 12z"/>
<path d="M836 2934 c-14 -13 -16 -53 -16 -285 0 -167 4 -278 10 -290 10 -18
24 -19 293 -19 207 0 286 3 295 12 17 17 17 569 0 586 -9 9 -87 12 -289 12
-239 0 -280 -2 -293 -16z"/>
<path d="M1612 2942 c-9 -7 -12 -74 -10 -303 l3 -294 287 -3 286 -2 21 29 c20
28 21 42 21 276 0 234 -1 248 -21 276 l-20 29 -277 0 c-152 0 -283 -4 -290 -8z"/>
<path d="M80 2173 c-8 -3 -18 -11 -22 -17 -14 -20 -9 -561 4 -574 17 -17 569
-17 586 0 15 15 17 555 2 578 -8 13 -52 15 -282 17 -150 1 -280 -1 -288 -4z"/>
<path d="M842 2164 c-22 -15 -22 -17 -22 -293 0 -202 3 -280 12 -289 17 -17
569 -17 586 0 9 9 12 88 12 295 l0 283 -26 10 c-14 6 -140 10 -282 10 -217 0
-261 -2 -280 -16z"/>
<path d="M2194 1404 c22 -22 20 -41 -2 -20 -17 15 -49 16 -303 14 l-284 -3 -3
-289 c-2 -205 1 -293 9 -302 9 -11 65 -14 285 -14 257 0 275 1 293 19 11 11
22 17 25 14 3 -3 5 124 5 283 0 279 -4 314 -31 314 -5 0 -2 -7 6 -16z"/>
<path d="M62 1388 c-9 -9 -12 -87 -12 -289 0 -239 2 -280 16 -293 23 -24 555
-24 578 0 14 13 16 54 16 293 0 202 -3 280 -12 289 -17 17 -569 17 -586 0z"/>
<path d="M830 1381 c-6 -12 -10 -123 -10 -290 0 -232 2 -272 16 -285 13 -14
53 -16 285 -16 167 0 278 4 290 10 18 10 19 24 19 293 0 207 -3 286 -12 295
-9 9 -88 12 -295 12 -269 0 -283 -1 -293 -19z"/>
<path d="M67 618 c-15 -12 -17 -45 -18 -305 0 -161 2 -297 6 -303 3 -5 12 -10
18 -10 7 0 4 5 -6 11 -9 5 -17 15 -17 21 0 9 3 9 12 0 17 -17 569 -17 586 0 9
9 12 87 12 289 0 239 -2 280 -16 293 -13 14 -54 16 -288 16 -202 0 -276 -3
-289 -12z"/>
<path d="M836 614 c-14 -13 -16 -53 -16 -285 0 -167 4 -278 10 -290 10 -18 24
-19 293 -19 207 0 286 3 295 12 9 9 12 88 12 295 0 269 -1 283 -19 293 -12 6
-123 10 -290 10 -232 0 -272 -2 -285 -16z"/>
</g>
</svg>
