<?xml version="1.0" encoding="UTF-8"?>
<!DOCTYPE svg PUBLIC "-//W3C//DTD SVG 1.1//EN" "http://www.w3.org/Graphics/SVG/1.1/DTD/svg11.dtd">
<svg xmlns="http://www.w3.org/2000/svg" version="1.1" width="885px" height="151px" style="shape-rendering:geometricPrecision; text-rendering:geometricPrecision; image-rendering:optimizeQuality; fill-rule:evenodd; clip-rule:evenodd" xmlns:xlink="http://www.w3.org/1999/xlink">
<g><path style="opacity:0.998" fill="#efb5bb" d="M 866.5,64.5 C 865.883,64.3893 865.383,64.056 865,63.5C 862.079,65.7121 858.912,67.5455 855.5,69C 846.915,71.9789 838.248,74.6455 829.5,77C 839.532,79.3459 844.699,85.5125 845,95.5C 840.855,100.829 835.355,103.995 828.5,105C 814.604,107.551 800.937,106.717 787.5,102.5C 783.893,107.949 780.059,113.283 776,118.5C 773.116,84.8129 781.45,54.1462 801,26.5C 804.5,23 808,19.5 811.5,16C 810.944,15.6174 810.611,15.1174 810.5,14.5C 828.479,2.67082 847.812,-0.162518 868.5,6C 875.554,9.38943 880.054,14.8894 882,22.5C 885.172,39.8392 880.005,53.8392 866.5,64.5 Z"/></g>
<g><path style="opacity:0.973" fill="#0b584e" d="M 810.5,14.5 C 810.611,15.1174 810.944,15.6174 811.5,16C 808,19.5 804.5,23 801,26.5C 781.45,54.1462 773.116,84.8129 776,118.5C 780.059,113.283 783.893,107.949 787.5,102.5C 800.937,106.717 814.604,107.551 828.5,105C 835.355,103.995 840.855,100.829 845,95.5C 844.699,85.5125 839.532,79.3459 829.5,77C 838.248,74.6455 846.915,71.9789 855.5,69C 858.912,67.5455 862.079,65.7121 865,63.5C 865.383,64.056 865.883,64.3893 866.5,64.5C 872.18,97.3585 860.847,122.192 832.5,139C 806.035,150.053 781.368,147.053 758.5,130C 736.57,107.799 731.07,81.9661 742,52.5C 756.314,24.9176 779.148,12.2509 810.5,14.5 Z"/></g>
<g><path style="opacity:0.963" fill="#04574c" d="M 58.5,15.5 C 77.8302,13.0487 95.4969,17.2154 111.5,28C 121.114,36.2274 127.114,46.5608 129.5,59C 116.5,59.6667 103.5,59.6667 90.5,59C 79.2505,47.1554 66.5838,45.4888 52.5,54C 45.151,61.0306 41.4843,69.6973 41.5,80C 42.9942,105.496 56.3276,116.163 81.5,112C 89.2811,109.884 94.9478,105.218 98.5,98C 86.8381,97.5001 75.1714,97.3335 63.5,97.5C 63.5,88.8333 63.5,80.1667 63.5,71.5C 85.8333,71.5 108.167,71.5 130.5,71.5C 137.168,107.63 123.168,131.464 88.5,143C 65.9185,148.423 45.2518,144.423 26.5,131C 11.6143,117.368 4.28095,100.368 4.5,80C 6.20157,44.4915 24.2016,22.9915 58.5,15.5 Z"/></g>
<g><path style="opacity:0.963" fill="#04574c" d="M 654.5,15.5 C 674.409,12.8645 692.409,17.3645 708.5,29C 717.569,37.2284 722.903,47.3951 724.5,59.5C 711.483,59.8325 698.483,59.4991 685.5,58.5C 680.493,51.9965 673.827,48.6632 665.5,48.5C 650.292,49.5397 641.125,57.5397 638,72.5C 636.133,84.1707 638.466,94.8374 645,104.5C 657.335,113.772 670.501,115.272 684.5,109C 688.062,105.942 691.062,102.442 693.5,98.5C 682.186,97.5012 670.853,97.1678 659.5,97.5C 659.5,88.8333 659.5,80.1667 659.5,71.5C 681.833,71.5 704.167,71.5 726.5,71.5C 732.903,105.89 719.903,129.39 687.5,142C 658.371,150.315 633.538,143.482 613,121.5C 597.54,96.1241 596.54,70.1241 610,43.5C 620.774,27.6974 635.607,18.3641 654.5,15.5 Z"/></g>
<g><path style="opacity:0.961" fill="#04574c" d="M 207.5,41.5 C 209.833,41.5 212.167,41.5 214.5,41.5C 214.5,54.5 214.5,67.5 214.5,80.5C 207.825,80.3337 201.158,80.5004 194.5,81C 187.216,82.6177 183.049,87.1177 182,94.5C 181.5,111.163 181.333,127.83 181.5,144.5C 169.5,144.5 157.5,144.5 145.5,144.5C 145.5,110.5 145.5,76.5 145.5,42.5C 157.5,42.5 169.5,42.5 181.5,42.5C 181.334,47.8437 181.501,53.1771 182,58.5C 188.489,49.682 196.989,44.0153 207.5,41.5 Z"/></g>
<g><path style="opacity:0.963" fill="#04574c" d="M 260.5,41.5 C 303.355,38.2107 324.022,57.8773 322.5,100.5C 300.164,100.333 277.831,100.5 255.5,101C 257.439,113.274 264.439,117.941 276.5,115C 279.167,113.667 281.167,111.667 282.5,109C 295.162,108.5 307.829,108.333 320.5,108.5C 316.46,127.708 304.793,139.541 285.5,144C 264.997,148.585 247.164,143.751 232,129.5C 220.489,113.443 217.156,95.7766 222,76.5C 228.076,57.2514 240.909,45.5847 260.5,41.5 Z M 265.5,70.5 C 273.68,68.6844 280.18,71.0177 285,77.5C 285.494,79.1341 285.66,80.8008 285.5,82.5C 275.81,82.8318 266.144,82.4984 256.5,81.5C 257.869,76.3909 260.869,72.7243 265.5,70.5 Z"/></g>
<g><path style="opacity:0.964" fill="#04574c" d="M 371.5,41.5 C 392.309,38.2685 409.809,44.2685 424,59.5C 432.191,71.9455 435.357,85.6122 433.5,100.5C 411.167,100.5 388.833,100.5 366.5,100.5C 368.396,113.946 375.729,118.446 388.5,114C 390.019,112.649 391.352,111.149 392.5,109.5C 405.483,108.501 418.483,108.168 431.5,108.5C 426.759,127.075 415.092,138.909 396.5,144C 352.766,149.592 330.933,130.426 331,86.5C 334.207,62.1307 347.707,47.1307 371.5,41.5 Z M 376.5,70.5 C 383.91,69.045 390.077,71.045 395,76.5C 396.128,78.3453 396.628,80.3453 396.5,82.5C 386.833,82.5 377.167,82.5 367.5,82.5C 368.256,76.7525 371.256,72.7525 376.5,70.5 Z"/></g>
<g><path style="opacity:0.96" fill="#04574c" d="M 507.5,41.5 C 534.138,40.3021 548.971,52.9688 552,79.5C 552.5,101.164 552.667,122.831 552.5,144.5C 540.167,144.5 527.833,144.5 515.5,144.5C 515.667,124.164 515.5,103.831 515,83.5C 509.606,71.4799 501.106,68.6466 489.5,75C 486.769,77.6259 484.936,80.7926 484,84.5C 483.5,104.497 483.333,124.497 483.5,144.5C 471.5,144.5 459.5,144.5 447.5,144.5C 447.5,110.5 447.5,76.5 447.5,42.5C 459.5,42.5 471.5,42.5 483.5,42.5C 483.334,46.5138 483.501,50.5138 484,54.5C 490.393,47.3904 498.226,43.0571 507.5,41.5 Z"/></g>
</svg>
