<?xml version="1.0" standalone="no"?>
<!DOCTYPE svg PUBLIC "-//W3C//DTD SVG 20010904//EN"
 "http://www.w3.org/TR/2001/REC-SVG-20010904/DTD/svg10.dtd">
<svg version="1.0" xmlns="http://www.w3.org/2000/svg"
 width="885.000000pt" height="151.000000pt" viewBox="0 0 885.000000 151.000000"
 preserveAspectRatio="xMidYMid meet">

<g transform="translate(0.000000,151.000000) scale(0.100000,-0.100000)"
fill="#000000" stroke="none">
<path d="M608 1340 c-261 -31 -456 -199 -525 -451 -22 -79 -24 -279 -4 -359
57 -234 238 -408 473 -455 299 -59 564 53 714 302 l34 57 0 178 0 178 -325 0
-325 0 0 -125 0 -125 175 0 c96 0 175 -4 175 -8 0 -17 -58 -89 -88 -111 -73
-52 -197 -66 -303 -35 -76 22 -151 100 -175 180 -25 88 -16 243 18 309 52 101
128 145 248 145 86 0 138 -20 184 -69 l30 -31 187 0 188 0 -16 53 c-76 258
-342 405 -665 367z"/>
<path d="M6563 1339 c-210 -24 -385 -143 -472 -321 -57 -114 -74 -204 -68
-348 8 -198 68 -336 196 -451 186 -169 503 -208 741 -91 95 47 221 168 268
258 l32 62 0 171 0 171 -325 0 -325 0 0 -125 0 -125 175 0 176 0 -16 -30 c-22
-42 -75 -93 -121 -115 -55 -26 -176 -32 -245 -11 -116 33 -179 112 -201 250
-21 136 13 250 96 323 54 47 101 63 190 63 79 0 119 -15 174 -64 l39 -36 183
0 183 0 -6 35 c-10 63 -70 167 -128 226 -121 122 -333 183 -546 158z"/>
<path d="M7852 1330 c-334 -88 -531 -422 -457 -775 45 -213 213 -398 425 -467
91 -29 270 -36 365 -14 228 54 411 233 470 461 16 62 22 233 10 296 l-7 36
-51 -28 c-48 -25 -156 -62 -265 -89 l-44 -11 52 -26 c59 -29 99 -76 107 -126
5 -30 1 -40 -23 -63 -60 -55 -165 -84 -307 -84 -81 0 -192 16 -238 35 -12 4
-29 -15 -69 -77 -62 -98 -68 -94 -69 48 -2 276 130 644 297 824 34 38 62 71
62 74 0 14 -189 4 -258 -14z"/>
<path d="M2655 1084 c-11 -2 -45 -9 -75 -15 -78 -16 -181 -73 -235 -130 -179
-192 -177 -554 5 -736 95 -95 219 -143 370 -143 201 0 365 93 449 254 53 100
60 96 -154 96 -174 0 -185 -1 -195 -20 -27 -50 -135 -67 -195 -30 -33 20 -65
80 -65 120 0 19 9 20 333 22 l332 3 3 60 c7 141 -40 276 -130 371 -61 65 -115
99 -197 125 -58 18 -207 32 -246 23z m142 -291 c39 -18 73 -65 73 -100 0 -23
-1 -23 -155 -23 -172 0 -170 -1 -132 64 40 70 135 97 214 59z"/>
<path d="M3715 1075 c-197 -35 -349 -186 -384 -379 -36 -194 13 -380 131 -497
94 -95 212 -139 371 -139 199 0 362 93 442 252 19 39 35 77 35 84 0 11 -35 14
-181 14 l-182 0 -38 -35 c-34 -31 -46 -35 -92 -35 -56 0 -108 24 -126 58 -6
11 -14 38 -20 61 l-9 41 333 0 334 0 6 43 c9 56 -9 182 -35 247 -61 154 -188
255 -359 286 -92 16 -135 16 -226 -1z m196 -287 c37 -20 69 -68 69 -102 0 -14
-20 -16 -155 -16 -144 0 -155 1 -155 19 0 29 43 85 80 103 48 25 114 23 161
-4z"/>
<path d="M2017 1060 c-61 -23 -110 -59 -164 -119 l-43 -46 0 88 0 87 -170 0
-170 0 0 -500 0 -500 170 0 170 0 0 225 c0 124 5 247 11 275 21 100 89 140
241 140 l78 0 0 185 0 185 -37 0 c-21 -1 -60 -9 -86 -20z"/>
<path d="M5015 1063 c-57 -21 -140 -75 -158 -104 -20 -33 -27 -21 -27 46 l0
65 -175 0 -175 0 0 -500 0 -500 174 0 175 0 3 303 c3 281 4 304 23 336 71 121
247 111 301 -16 11 -25 14 -99 14 -328 l0 -295 175 0 175 0 0 323 c0 343 -7
414 -50 497 -32 64 -96 126 -158 157 -74 36 -219 44 -297 16z"/>
</g>
</svg>
